<svg width="225" height="150" viewBox="0 0 225 150" fill="none" xmlns="http://www.w3.org/2000/svg">
<path d="M139.895 119.044V125.124H141.844V121.076H148.94V125.124H150.888V119.055L139.895 119.044ZM141.627 117.078H149.124C150.165 116.871 150.939 115.952 151.158 115.063H139.594C139.81 115.952 140.595 116.871 141.627 117.078ZM133.99 125.128C134.973 124.711 135.502 123.99 135.705 123.147H126.961L126.966 115.068L125.006 115.074V125.128H133.99ZM110.43 117.051H117.353C118.397 116.747 119.273 115.952 119.487 115.071H108.489V121.012H117.491V123.097L110.43 123.103C109.323 123.411 108.385 124.154 107.917 125.136L108.489 125.125H119.425V119.037H110.43V117.051ZM93.3388 117.07H100.833C101.875 116.862 102.65 115.944 102.867 115.054H91.304C91.5199 115.944 92.3061 116.862 93.3388 117.07ZM93.3388 121.043H100.833C101.875 120.838 102.65 119.919 102.867 119.029H91.304C91.5199 119.919 92.3061 120.838 93.3388 121.043ZM93.3388 125.126H100.833C101.875 124.919 102.65 124.001 102.867 123.111H91.304C91.5199 124.001 92.3061 124.919 93.3388 125.126ZM73.8428 115.079C74.0681 115.957 74.8288 116.855 75.8725 117.08H79.027L79.1879 117.144V125.104H81.1578V117.144L81.3367 117.08H84.494C85.5494 116.809 86.2937 115.957 86.5151 115.079V115.059H73.8428V115.079Z" fill="white"/>
<path d="M112.504 95.0543L122.347 39.6997C131.728 39.6997 134.688 40.7284 135.115 44.9275C135.115 44.9275 141.408 42.5809 144.582 37.815C132.196 32.0753 119.75 31.8165 119.75 31.8165L112.488 40.6618L112.504 40.6607L105.242 31.8151C105.242 31.8151 92.7961 32.0742 80.4111 37.8139C83.5826 42.5798 89.8785 44.9264 89.8785 44.9264C90.3083 40.727 93.2638 39.6983 102.582 39.6916L112.504 95.0543Z" fill="white"/>
<path d="M112.5 29.2615C122.513 29.1849 133.974 30.8105 145.706 35.924C147.275 33.1016 147.678 31.8542 147.678 31.8542C134.852 26.7801 122.842 25.0436 112.499 25C102.157 25.0436 90.1468 26.7804 77.3232 31.8542C77.3232 31.8542 77.8953 33.3907 79.2931 35.924C91.0232 30.8105 102.486 29.1849 112.499 29.2615H112.5Z" fill="white"/>
</svg>
